<svg class="svg-icon" style="width: 1em;height: 1em;vertical-align: middle;fill: currentColor;overflow: hidden;" viewBox="0 0 1024 1024" version="1.1" xmlns="http://www.w3.org/2000/svg"><path d="M511.996 81.862c-237.546 0-430.136 192.58-430.136 430.136S274.45 942.14 511.996 942.14c237.566 0 430.152-192.586 430.152-430.142S749.562 81.862 511.996 81.862z" fill="#EDF3FC" /><path d="M511.996 2C230.782 2 2 230.788 2 511.998 2 793.21 230.782 1022 511.996 1022 793.214 1022 1022 793.21 1022 511.998 1022 230.788 793.214 2 511.996 2z m0 1003.654C239.792 1005.654 18.338 784.2 18.338 511.998S239.794 18.338 511.996 18.338c272.208 0 493.666 221.458 493.666 493.66 0 272.204-221.458 493.656-493.666 493.656z" fill="#EDF3FC" /><path d="M731.476 303.91h-438.94c-27.786 0-50.312 22.524-50.312 50.296v315.578c0 27.784 22.528 50.304 50.312 50.304h438.942c27.782 0 50.3-22.522 50.3-50.304V354.208c0-27.774-22.52-50.298-50.302-50.298z" fill="#330D84" /><path d="M600.844 347.168m-15 0a15 15 0 1 0 30 0 15 15 0 1 0-30 0Z" fill="#FFFFFF" /><path d="M661.734 332.168c-8.292 0-15.004 6.714-15.004 15s6.71 15 15.004 15a15 15 0 0 0 0-30z" fill="#FFFFFF" /><path d="M722.618 347.168m-15 0a15 15 0 1 0 30 0 15 15 0 1 0-30 0Z" fill="#FFFFFF" /><path d="M242.222 393.204v276.582c0 27.784 22.528 50.304 50.312 50.304h438.942c27.782 0 50.3-22.522 50.3-50.304V393.204H242.222z" fill="#6857E5" /><path d="M508.228 220.874a57.736 57.736 0 0 1-41.964-41.96l-0.882-3.526-0.878 3.526a57.748 57.748 0 0 1-41.964 41.96l-3.532 0.882 3.532 0.882a57.76 57.76 0 0 1 41.964 41.966l0.878 3.52 0.882-3.52a57.746 57.746 0 0 1 41.964-41.966l3.532-0.882-3.532-0.882zM343.768 251.548a37.814 37.814 0 0 1-27.482-27.482l-0.58-2.31-0.576 2.31a37.826 37.826 0 0 1-27.484 27.482l-2.312 0.578 2.312 0.578a37.824 37.824 0 0 1 27.484 27.484l0.576 2.304 0.58-2.304a37.812 37.812 0 0 1 27.482-27.484l2.314-0.578-2.314-0.578zM678.98 783.658a43.426 43.426 0 0 1-31.586-31.578l-0.664-2.652-0.668 2.652a43.43 43.43 0 0 1-31.584 31.578l-2.646 0.666 2.646 0.662a43.428 43.428 0 0 1 31.584 31.588l0.668 2.644 0.664-2.644a43.424 43.424 0 0 1 31.586-31.588l2.646-0.662-2.646-0.666zM568.144 808.604a75.65 75.65 0 0 1-54.992-54.982l-1.152-4.618-1.168 4.616a75.616 75.616 0 0 1-54.972 54.982l-4.614 1.16 4.614 1.16a75.57 75.57 0 0 1 54.972 54.98l1.168 4.618 1.152-4.616a75.606 75.606 0 0 1 54.992-54.98l4.618-1.16-4.618-1.16z" fill="#330D84" /><path d="M391.36 438.66l-41.922 19.754v11.816l41.922 19.754v-12.768l-27.688-13.108 27.688-12.768zM436.216 428.912l-36.144 79.1h12.162l36.226-79.1zM457.092 438.66v12.68l27.686 12.768-27.686 13.108v12.768l41.922-19.754v-11.816zM502.368 538.82h-156.286a10 10 0 0 0-10 10 10 10 0 0 0 10 10h156.286a10 10 0 1 0 0-20zM502.368 580.496h-156.286a10 10 0 0 0-10 10 10 10 0 0 0 10 10h156.286a10 10 0 1 0 0-20zM502.368 622.176h-156.286a10 10 0 0 0-10 10 10 10 0 0 0 10 10h156.286a10 10 0 1 0 0-20zM658.382 426.518h-70.266l31.94 57.8h70.268z" fill="#FFFFFF" /><path d="M588.116 426.518l-32.792 57.8 32.792 57.624 31.94-57.624zM622.4 576.766h-70.268l31.94 57.802h70.268z" fill="#FFFFFF" /><path d="M654.34 519.142l-31.94 57.624 31.94 57.802 32.792-57.802z" fill="#FFFFFF" /></svg>